<svg width="15" height="13" viewBox="0 0 15 13" fill="none" xmlns="http://www.w3.org/2000/svg">
<path fill-rule="evenodd" clip-rule="evenodd" d="M8.4449 0.609101C8.0183 -0.106679 6.9817 -0.106679 6.55509 0.609102L0.161178 11.3371C-0.275824 12.0703 0.252503 13.0003 1.10608 13.0003H13.8939C14.7475 13.0003 15.2758 12.0703 14.8388 11.3371L8.4449 0.609101ZM7.4141 1.12107C7.45288 1.056 7.54712 1.056 7.5859 1.12107L13.9798 11.8491C14.0196 11.9157 13.9715 12.0003 13.8939 12.0003H1.10608C1.02849 12.0003 0.980454 11.9157 1.02018 11.8491L7.4141 1.12107ZM6.8269 4.48645C6.81221 4.10457 7.11783 3.78697 7.5 3.78697C7.88217 3.78697 8.18778 4.10457 8.1731 4.48646L8.01921 8.48735C8.00848 8.76634 7.7792 8.98698 7.5 8.98698C7.2208 8.98698 6.99151 8.76634 6.98078 8.48735L6.8269 4.48645ZM8.24989 10.4763C8.24989 10.8905 7.9141 11.2263 7.49989 11.2263C7.08567 11.2263 6.74989 10.8905 6.74989 10.4763C6.74989 10.0621 7.08567 9.72633 7.49989 9.72633C7.9141 9.72633 8.24989 10.0621 8.24989 10.4763Z" fill="#E42626"/>
</svg>
