<svg width="43" height="43" viewBox="0 0 43 43" fill="none" xmlns="http://www.w3.org/2000/svg">
<path fill-rule="evenodd" clip-rule="evenodd" d="M3.78823 24.2215C3.65207 23.3293 3.58398 22.4137 3.58398 21.5C3.58398 11.6207 11.6214 3.58329 21.5007 3.58329C31.3799 3.58329 39.4173 11.6207 39.4173 21.5C39.4173 31.3792 31.3799 39.4166 21.5007 39.4166C15.8963 39.4166 10.7202 36.8671 7.29811 32.4255C6.85915 31.8558 6.96665 31.0352 7.53461 30.598C8.10436 30.1573 8.92136 30.2666 9.3639 30.8345C12.2861 34.6347 16.7115 36.8115 21.5007 36.8115C29.943 36.8115 36.8122 29.9441 36.8122 21.5C36.8122 13.0576 29.943 6.19017 21.5007 6.19017C13.0583 6.19017 6.18907 13.0576 6.18907 21.5C6.18907 22.2829 6.24819 23.0659 6.36465 23.8273C6.47215 24.5368 5.98482 25.2015 5.27353 25.3108C4.55865 25.4291 3.89753 24.9328 3.78823 24.2215ZM26.5071 21.5014C26.5071 21.8579 26.3655 22.2001 26.1111 22.4528L19.8653 28.6716C19.3386 29.1966 18.4876 29.1948 17.9644 28.6681C17.4412 28.1413 17.4412 27.2921 17.968 26.7689L23.2588 21.5014L17.968 16.2339C17.4412 15.7107 17.4412 14.8597 17.9644 14.3329C18.4876 13.808 19.3386 13.8062 19.8653 14.3293L26.1111 20.55C26.3655 20.8008 26.5071 21.1431 26.5071 21.5014Z" fill="#E42626"/>
</svg>
