<?xml version="1.0" encoding="utf-8"?>
<!-- Generator: Adobe Illustrator 25.0.0, SVG Export Plug-In . SVG Version: 6.00 Build 0)  -->
<svg version="1.1" id="圖層_1" xmlns="http://www.w3.org/2000/svg" xmlns:xlink="http://www.w3.org/1999/xlink" x="0px" y="0px"
	 viewBox="0 0 76 100" style="enable-background:new 0 0 76 100;" xml:space="preserve">
<style type="text/css">
	.st0{fill:#E42626;}
</style>
<path class="st0" d="M73.6,35.4c0.8,0,1.5-0.7,1.5-1.5V17.5c0-0.7-0.4-1.4-1.1-1.7L38.8,0.2c-0.5-0.2-1-0.2-1.5,0L2.1,15.7
	C1.4,16,1,16.7,1,17.5v30.4c0,11.4,3.4,22.3,9.9,31.7c6.5,9.3,15.6,16.4,26.2,20.3c0.6,0.2,1.2,0.2,1.7,0c10.7-4,19.7-11,26.2-20.3
	c6.5-9.3,9.9-20.3,9.9-31.7v-7.1c0-0.8-0.7-1.5-1.5-1.5c-0.8,0-1.5,0.7-1.5,1.5v7.1C72.1,69.7,58.4,89.4,38,97
	C17.6,89.4,3.9,69.7,3.9,47.9V18.1L38,3l34.1,15.1v15.8C72.1,34.7,72.7,35.4,73.6,35.4L73.6,35.4z"/>
<path class="st0" d="M45.5,49c0.6,0.6,1.5,0.6,2.1,0l4.9-4.9c0.9-0.9,0.9-2.4,0-3.3l-4-4c-0.9-0.9-2.4-0.9-3.3,0L34.3,47.7l-4.8-4.8
	c-0.9-0.9-2.4-0.9-3.3,0l-4,4c-0.9,0.9-0.9,2.4,0,3.3l10.4,10.4c0.9,0.9,2.4,0.9,3.3,0l6.6-6.6c0.6-0.6,0.6-1.5,0-2.1
	c-0.6-0.6-1.5-0.6-2.1,0l-6.2,6.2l-9.6-9.6l3.1-3.1l4.8,4.8c0.9,0.9,2.4,0.9,3.3,0l10.8-10.8l3.1,3.1L45.5,47
	C44.9,47.5,44.9,48.5,45.5,49L45.5,49z"/>
<path class="st0" d="M38,94.1c0.8,0,1.5-0.7,1.5-1.5V71.5c12.3-0.8,22-11,22-23.5s-9.8-22.7-22-23.5V7.4c0-0.8-0.7-1.5-1.5-1.5
	c-0.8,0-1.5,0.7-1.5,1.5v17.2c-3.3,0.2-6.5,1.1-9.4,2.6c-0.7,0.4-1,1.3-0.6,2c0.4,0.7,1.3,1,2,0.6c2.5-1.3,5.2-2.1,8-2.3v7
	c0,0.8,0.7,1.5,1.5,1.5c0.8,0,1.5-0.7,1.5-1.5v-7c10.7,0.8,19.1,9.7,19.1,20.5c0,10.9-8.4,19.8-19.1,20.5v-3.5
	c0-0.8-0.7-1.5-1.5-1.5c-0.8,0-1.5,0.7-1.5,1.5v3.5c-10.7-0.8-19.1-9.7-19.1-20.5c0-5.4,2.1-10.5,5.9-14.4c0.6-0.6,0.6-1.5,0-2.1
	c-0.6-0.6-1.5-0.6-2.1,0c-4.3,4.4-6.7,10.3-6.7,16.5c0,12.5,9.8,22.7,22,23.5v21.1C36.5,93.4,37.2,94.1,38,94.1L38,94.1z"/>
</svg>
