<?xml version="1.0" encoding="utf-8"?>
<!-- Generator: Adobe Illustrator 25.0.0, SVG Export Plug-In . SVG Version: 6.00 Build 0)  -->
<svg version="1.1" id="圖層_1" xmlns="http://www.w3.org/2000/svg" xmlns:xlink="http://www.w3.org/1999/xlink" x="0px" y="0px"
	 viewBox="0 0 86 87" style="enable-background:new 0 0 86 87;" xml:space="preserve">
<style type="text/css">
	.st0{fill:#E42626;}
</style>
<path class="st0" d="M43,23.3c4.5,0,8.7,1.5,12.2,4.2c0.5,0.4,1.3,0.3,1.8-0.2c0.4-0.6,0.3-1.4-0.2-1.8c-4-3.1-8.7-4.8-13.8-4.8
	c-12.4,0-22.4,10.2-22.4,22.7c0,10.9,7.6,20.1,17.8,22.2c0,0,0.1,0,0.1,0c3,0.6,6.1,0.6,9.1,0c0,0,0.1,0,0.1,0
	c10.2-2.2,17.8-11.3,17.8-22.2c0-4.9-1.5-9.5-4.3-13.4c-0.4-0.6-1.2-0.7-1.8-0.3c-0.6,0.4-0.7,1.2-0.3,1.8c2.5,3.5,3.8,7.6,3.8,11.9
	c0,9.2-6.1,16.9-14.3,19.4V50.5c1.2-0.6,2.3-1.4,3.3-2.4c5.8-5.8,4.8-15.7-2.3-20c-0.7-0.4-1.5-0.4-2.2,0c-0.7,0.4-1.1,1.1-1.1,1.9
	v7.4l-3.3,3.2l-3.1-3.1V30c0-0.8-0.4-1.5-1.1-1.9c-0.7-0.4-1.5-0.4-2.2,0c-7,4.3-8.3,14.2-2.2,20.1c1,0.9,2,1.7,3.2,2.3v4.3
	c0,0.7,0.6,1.3,1.3,1.3c0.7,0,1.3-0.6,1.3-1.3v-3.3c2,0.5,4.2,0.5,6.1,0v12c-0.6,0.1-1.2,0.2-1.8,0.2v-7.2c0-0.7-0.6-1.3-1.3-1.3
	c-0.7,0-1.3,0.6-1.3,1.3v7.2c-0.6,0-1.2-0.1-1.8-0.2v-2.7c0-0.7-0.6-1.3-1.3-1.3c-0.7,0-1.3,0.6-1.3,1.3v2.2
	c-8.3-2.5-14.3-10.2-14.3-19.4C23.1,32.4,32,23.3,43,23.3z M39.3,48.5c-0.1,0-0.2-0.1-0.3-0.1c-3.5-1.5-5.9-4.9-6.1-8.9
	c-0.1-3.5,1.5-6.9,4.4-8.9v6.9c0,0.6,0.2,1.1,0.6,1.5l3.5,3.5c0.8,0.8,2.2,0.8,3,0l3.6-3.5c0.4-0.4,0.7-1,0.7-1.6v-6.9
	c2.8,1.9,4.4,5,4.4,8.4c0,4.3-2.6,7.9-6.2,9.4c0,0-0.1,0-0.1,0.1C44.5,49.5,41.8,49.5,39.3,48.5z"/>
<path class="st0" d="M82.8,33.9l-8.3-1c-0.2,0-0.4-0.2-0.5-0.4c-0.4-1.1-0.9-2.3-1.4-3.4c-0.1-0.2-0.1-0.5,0.1-0.6l5.1-6.6
	c1.1-1.5,1-3.6-0.3-4.9l-8.3-8.4c-1.3-1.3-3.4-1.4-4.8-0.3l-6.6,5.2c-0.2,0.1-0.4,0.2-0.6,0.1c-1.1-0.5-2.2-1-3.3-1.4
	c-0.2-0.1-0.4-0.3-0.4-0.5l-1-8.4C52.3,1.4,50.7,0,48.9,0H37.1c-1.8,0-3.4,1.4-3.6,3.2l-1,8.4c0,0.2-0.2,0.4-0.4,0.5
	c-1.1,0.4-2.3,0.9-3.3,1.4c-0.2,0.1-0.4,0.1-0.6-0.1l-6.6-5.2c-1.4-1.1-3.5-1-4.8,0.3l-2.1,2.1c-0.5,0.5-0.5,1.3,0,1.8
	c0.5,0.5,1.3,0.5,1.8,0l2.1-2.1c0.4-0.4,1-0.4,1.5-0.1l6.6,5.2c0.9,0.7,2.2,0.9,3.3,0.4c1-0.5,2-0.9,3.1-1.3
	c1.1-0.4,1.9-1.4,2.1-2.6l1-8.4c0.1-0.6,0.5-1,1.1-1h11.8c0.6,0,1,0.4,1.1,1l1,8.4c0.1,1.2,0.9,2.2,2.1,2.6c1,0.4,2.1,0.8,3.1,1.3
	c1.1,0.5,2.3,0.4,3.3-0.4l6.6-5.2c0.4-0.4,1.1-0.3,1.5,0.1l8.3,8.4c0.4,0.4,0.4,1.1,0.1,1.5l-5.1,6.6c-0.7,0.9-0.9,2.2-0.3,3.3
	c0.5,1,0.9,2.1,1.3,3.1c0.4,1.2,1.4,2,2.6,2.1l8.3,1c0.6,0.1,1,0.6,1,1.1v11.9c0,0.6-0.4,1.1-1,1.1l-8.3,1c-1.2,0.1-2.2,1-2.6,2.1
	c-0.4,1.1-0.8,2.1-1.3,3.1c-0.5,1.1-0.4,2.4,0.3,3.3l5.1,6.6c0.3,0.5,0.3,1.1-0.1,1.5l-8.3,8.4c-0.4,0.4-1,0.4-1.5,0.1l-6.6-5.2
	c-0.9-0.7-2.2-0.9-3.3-0.4c-1,0.5-2,0.9-3.1,1.3c-1.1,0.4-1.9,1.4-2.1,2.6l-1,8.4c-0.1,0.6-0.5,1-1.1,1H37.1c-0.6,0-1-0.4-1.1-1
	l-1-8.4c-0.1-1.2-0.9-2.2-2.1-2.6c-1-0.4-2.1-0.8-3.1-1.3c-1.1-0.5-2.3-0.4-3.3,0.4L20,76.8c-0.4,0.4-1.1,0.3-1.5-0.1l-8.3-8.4
	c-0.4-0.4-0.4-1.1-0.1-1.5l5.1-6.6c0.7-0.9,0.9-2.2,0.3-3.3c-0.5-1-0.9-2.1-1.3-3.1c-0.4-1.2-1.4-2-2.6-2.1l-8.3-1
	c-0.6-0.1-1-0.6-1-1.1V37.6c0-0.6,0.4-1.1,1-1.1l8.3-1c1.2-0.1,2.2-1,2.6-2.1c0.4-1.1,0.8-2.1,1.3-3.1c0.5-1.1,0.4-2.4-0.3-3.3
	l-5.1-6.6c-0.3-0.5-0.3-1.1,0.1-1.5l2.1-2.1c0.5-0.5,0.5-1.3,0-1.8c-0.5-0.5-1.3-0.5-1.8,0l-2.1,2.1c-1.3,1.3-1.4,3.4-0.3,4.9
	l5.1,6.6c0.1,0.2,0.2,0.4,0.1,0.6c-0.5,1.1-1,2.2-1.4,3.4c-0.1,0.2-0.3,0.4-0.5,0.4l-8.3,1C1.4,34.1,0,35.7,0,37.6v11.9
	c0,1.9,1.4,3.4,3.2,3.7l8.3,1c0.2,0,0.4,0.2,0.5,0.4c0.4,1.1,0.9,2.3,1.4,3.4c0.1,0.2,0.1,0.5-0.1,0.6l-5.1,6.6
	c-1.1,1.5-1,3.6,0.3,4.9l8.3,8.4c1.3,1.3,3.4,1.4,4.8,0.3l6.6-5.2c0.2-0.1,0.4-0.2,0.6-0.1c1.1,0.5,2.2,1,3.3,1.4
	c0.2,0.1,0.4,0.3,0.4,0.5l1,8.4c0.2,1.8,1.8,3.2,3.6,3.2h11.8c1.8,0,3.4-1.4,3.6-3.2l1-8.4c0-0.2,0.2-0.4,0.4-0.5
	c1.1-0.4,2.3-0.9,3.3-1.4c0.2-0.1,0.4-0.1,0.6,0.1l6.6,5.2c1.4,1.1,3.5,1,4.8-0.3l8.3-8.4c1.3-1.3,1.4-3.4,0.3-4.9l-5.1-6.6
	c-0.1-0.2-0.2-0.4-0.1-0.6c0.5-1.1,1-2.2,1.4-3.4c0.1-0.2,0.3-0.4,0.5-0.4l8.3-1c1.8-0.2,3.2-1.8,3.2-3.7V37.6
	C86,35.7,84.6,34.1,82.8,33.9z"/>
</svg>
