<?xml version="1.0" encoding="utf-8"?>
<!-- Generator: Adobe Illustrator 25.0.0, SVG Export Plug-In . SVG Version: 6.00 Build 0)  -->
<svg version="1.1" id="圖層_1" xmlns="http://www.w3.org/2000/svg" xmlns:xlink="http://www.w3.org/1999/xlink" x="0px" y="0px"
	 viewBox="0 0 95 95" style="enable-background:new 0 0 95 95;" xml:space="preserve">
<style type="text/css">
	.st0{fill:#E42626;}
</style>
<path class="st0" d="M77.1,82.7l-3.5-10.6c-1.2-3.7-4.4-6.5-8.3-7.2l-10.2-1.9v-0.8c1.8-1,3.3-2.4,4.6-4.1h3.1
	c2.5,0,4.6-2.1,4.6-4.6V35.2c0-11-8.9-19.9-19.9-19.9s-19.9,8.9-19.9,19.9V46c0,3,2.1,5.4,4.9,6c0.9,4.4,3.6,8.1,7.4,10.3v0.8
	l-10.2,1.9c-3.9,0.7-7,3.4-8.3,7.2l-0.6,1.8l-5.2-5.2c-0.6-0.6-0.6-1.6,0-2.2l6.1-6.1L10.1,49.1L3.3,56c-2,2-3.1,4.7-3.1,7.6
	s1.1,5.6,3.1,7.6L24,91.9c2,2,4.7,3.1,7.6,3.1c2.9,0,5.6-1.1,7.5-3.1l7.5-6.8l-2.3-2.3H77.1z M64.2,53.6c0,0.8-0.7,1.5-1.5,1.5h-1.3
	c0.4-1,0.8-2.1,1-3.2c0.7-0.1,1.3-0.4,1.8-0.7V53.6z M62.7,48.6v-5.3c0.9,0.5,1.5,1.5,1.5,2.6S63.6,48.1,62.7,48.6z M32.1,48.6
	c-0.9-0.5-1.5-1.5-1.5-2.6s0.6-2.1,1.5-2.6V48.6z M32.1,38.3v1.7c-0.5,0.1-1.1,0.4-1.5,0.6v-5.4c0-9.3,7.6-16.9,16.9-16.9
	c9.3,0,16.9,7.6,16.9,16.9v5.4c-0.5-0.3-1-0.5-1.5-0.6v-1.7h-1.5c-4.5,0-8.8-1.8-12-5l-1.8-1.8l-1.8,1.8c-3.2,3.2-7.5,5-12,5H32.1z
	 M35.1,49v-7.7c4.6-0.3,8.9-2.2,12.3-5.4c3.4,3.2,7.7,5.1,12.3,5.4V49c0,2.2-0.6,4.3-1.7,6.1H47.4v3.1h8.1c-2.2,1.9-5,3.1-8.1,3.1
	C40.6,61.3,35.1,55.8,35.1,49z M52,63.6L52,63.6l-4.6,4.7l-4.6-4.6v-0.1c1.5,0.5,3,0.7,4.6,0.7S50.5,64.1,52,63.6z M24.1,73.1
	c0.9-2.7,3.1-4.6,5.9-5.1L40.7,66l6.6,6.6L54,66L64.7,68c2.8,0.5,5,2.5,5.9,5.1l2.2,6.6H41.2l-6-6l-6.6,6c-0.6,0.6-1.6,0.6-2.2,0
	L23,76.4L24.1,73.1z M10.1,53.5l7,7l-1.7,1.7l-7-7L10.1,53.5z M37,89.7c-1.4,1.4-3.4,2.2-5.4,2.2c-2,0-4-0.8-5.4-2.2L5.4,69
	c-1.4-1.4-2.2-3.4-2.2-5.4c0-2,0.8-4,2.2-5.4l0.8-0.8l7,7l-0.1,0.1c-1.8,1.8-1.8,4.7,0,6.5l11,11c0.9,0.9,2,1.3,3.3,1.3
	c1.2,0,2.4-0.5,3.2-1.3l0.1-0.1l7.1,7.1L37,89.7z M40.1,86.8l-7-7l2-1.8l7,7L40.1,86.8z"/>
<path class="st0" d="M90.3,0H68.8c-2.5,0-4.6,2.1-4.6,4.6v12.3c0,2.5,2.1,4.6,4.6,4.6h4.1l-1.6,9.2l14.8-9.2h4.2
	c2.5,0,4.6-2.1,4.6-4.6V4.6C94.9,2.1,92.8,0,90.3,0z M91.8,16.9c0,0.8-0.7,1.5-1.5,1.5h-5l-9.7,6.1l1-6.1h-7.7
	c-0.8,0-1.5-0.7-1.5-1.5V4.6c0-0.8,0.7-1.5,1.5-1.5h21.5c0.8,0,1.5,0.7,1.5,1.5V16.9z"/>
<path class="st0" d="M88.8,6.1H70.4v3.1h18.4V6.1z"/>
<path class="st0" d="M82.6,12.3H70.4v3.1h12.3V12.3z"/>
<path class="st0" d="M88.8,12.3h-3.1v3.1h3.1V12.3z"/>
<path class="st0" d="M47.4,4.6c-20,0-37.3,13.8-41.7,33.2l-2.9-4.8l-2.6,1.6l5.4,9l9-5.4l-1.6-2.6L8.7,38C13.1,20.3,29,7.7,47.4,7.7
	c4,0,8,0.6,11.8,1.8l0.9-2.9C56,5.2,51.7,4.6,47.4,4.6z"/>
<path class="st0" d="M94.1,33.9l-9-5.4l-5.4,9l2.6,1.6l2.7-4.5c1.4,4.1,2.1,8.4,2.1,12.9c0,9.1-3.2,18-8.9,25.1l2.4,1.9
	c6.2-7.6,9.6-17.2,9.6-27c0-4.7-0.8-9.3-2.2-13.6l4.5,2.7L94.1,33.9z"/>
</svg>
