<?xml version="1.0" encoding="utf-8"?>
<!-- Generator: Adobe Illustrator 25.0.0, SVG Export Plug-In . SVG Version: 6.00 Build 0)  -->
<svg version="1.1" id="圖層_1" xmlns="http://www.w3.org/2000/svg" xmlns:xlink="http://www.w3.org/1999/xlink" x="0px" y="0px"
	 viewBox="0 0 63 79" style="enable-background:new 0 0 63 79;" xml:space="preserve">
<style type="text/css">
	.st0{fill:#E42626;}
</style>
<path class="st0" d="M33.5,28.2c0-0.4-0.1-0.9-0.5-1.2c-0.8-0.7-2-0.7-2.6,0c-0.3,0.4-0.6,0.9-0.6,1.2v23.5l-8.2-8.2
	c-0.1-0.1-0.3-0.3-0.5-0.4l-0.2,0c-0.2-0.1-0.4-0.1-0.6-0.1c-0.4,0-0.9,0.1-1.2,0.5c-0.2,0.2-0.3,0.4-0.4,0.5l0,0.2
	c-0.1,0.2-0.1,0.4-0.1,0.6c0,0.2,0.1,0.6,0.1,0.7l0.1,0.1c0.1,0.2,0.1,0.3,0.3,0.4l11.3,11.2c0.1,0.1,0.3,0.3,0.5,0.4l0.2,0
	c0.5,0.2,0.8,0.2,1.4,0l0,0c0.2-0.1,0.3-0.1,0.4-0.3L44,46.2c0.1-0.1,0.3-0.3,0.4-0.5l0-0.2c0.1-0.2,0.1-0.4,0.1-0.6
	c0-0.2-0.1-0.6-0.1-0.7l-0.1-0.1c-0.1-0.2-0.1-0.3-0.3-0.4l-0.3-0.3c0,0-0.1-0.1-0.1-0.1c0,0,0,0-0.1,0l-0.1,0
	c-0.2-0.1-0.4-0.1-0.6-0.1c-0.2,0-0.6,0.1-0.7,0.1L42,43.4c-0.2,0.1-0.3,0.1-0.4,0.3l-8.1,8.1V28.2z"/>
<path class="st0" d="M48.6,3.9c-0.8-0.9-1.8-1.6-2.6-2c-1-0.4-2.1-0.6-3.2-0.6H9.3c-2,0-3.8,0.8-5.1,2.2C2.8,4.9,2,6.8,2,8.7V70
	c0,2,0.8,3.9,2.1,5.1c1.5,1.4,3.4,2.2,5.2,2.2H54c2,0,3.9-0.8,5.1-2.1c1.4-1.4,2.2-3.3,2.2-5.2V21.9c0-1.7-0.6-3.4-1.7-4.8L48.6,3.9
	z M44.5,4.7l11.2,13.4h-7.4c-1,0-1.9-0.3-2.7-1c-0.7-0.8-1.1-1.8-1.1-2.8V4.7z M57.7,70c0,1-0.3,1.9-1,2.7c-0.8,0.7-1.8,1.1-2.8,1.1
	H9.3c-1,0-1.9-0.3-2.7-1l-0.1-0.1c-0.7-0.9-1-1.8-1-2.7V8.7c0-1.5,0.6-2.4,1.2-2.8c0.8-0.7,1.7-1,2.6-1H41v9.4c0,2,0.8,3.9,2.1,5.1
	c1.5,1.4,3.4,2.2,5.2,2.2h9.4V70z"/>
</svg>
