<svg width="13" height="13" viewBox="0 0 13 13" fill="none" xmlns="http://www.w3.org/2000/svg">
<path fill-rule="evenodd" clip-rule="evenodd" d="M9.45552 5.31818C9.45552 7.60264 7.60361 9.45455 5.31916 9.45455C3.0347 9.45455 1.18279 7.60264 1.18279 5.31818C1.18279 3.03373 3.0347 1.18182 5.31916 1.18182C7.60361 1.18182 9.45552 3.03373 9.45552 5.31818ZM8.6387 9.47334C7.7289 10.2012 6.57485 10.6364 5.31916 10.6364C2.38201 10.6364 0.000976562 8.25533 0.000976562 5.31818C0.000976562 2.38103 2.38201 0 5.31916 0C8.25631 0 10.6373 2.38103 10.6373 5.31818C10.6373 6.57387 10.2022 7.72792 9.47431 8.63772L12.828 11.9912C13.0586 12.222 13.0586 12.5962 12.828 12.827C12.5971 13.0577 12.223 13.0577 11.9922 12.827L8.6387 9.47334Z" fill="#787878"/>
</svg>
