<svg width="21" height="21" viewBox="0 0 21 21" fill="none" xmlns="http://www.w3.org/2000/svg">
<path d="M19.3192 14H5.08508C4.81543 14 4.55682 13.8946 4.36615 13.7071C4.17547 13.5196 4.06835 13.2652 4.06835 13C4.06835 12.7348 4.17547 12.4804 4.36615 12.2929C4.55682 12.1054 4.81543 12 5.08508 12H15.6997C16.3795 12 17.0399 11.7767 17.5759 11.3654C18.1119 10.9542 18.4929 10.3786 18.6583 9.73L20.3359 3.24C20.374 3.09241 20.3773 2.93821 20.3456 2.78917C20.3139 2.64013 20.248 2.50018 20.1529 2.38C20.054 2.25673 19.927 2.1581 19.7822 2.09208C19.6373 2.02606 19.4787 1.99452 19.3192 2H4.84106C4.6313 1.41645 4.24316 0.910998 3.72985 0.552938C3.21655 0.194879 2.6032 0.00173951 1.97391 0H1.01819C0.748536 0 0.489928 0.105357 0.299256 0.292893C0.108583 0.48043 0.00146484 0.734784 0.00146484 1C0.00146484 1.26522 0.108583 1.51957 0.299256 1.70711C0.489928 1.89464 0.748536 2 1.01819 2H1.97391C2.20616 1.99334 2.43373 2.06513 2.61872 2.20341C2.80371 2.34169 2.93496 2.53812 2.99063 2.76L3.05163 3.24L4.81056 10C4.00161 10.0358 3.24025 10.3862 2.69397 10.9741C2.14769 11.5621 1.86125 12.3394 1.89765 13.135C1.93406 13.9306 2.29032 14.6795 2.88808 15.2168C3.48584 15.7541 4.27612 16.0358 5.08508 16H5.26809C5.10087 16.4531 5.04714 16.9392 5.11144 17.4171C5.17574 17.895 5.35618 18.3506 5.63748 18.7454C5.91878 19.1401 6.29265 19.4624 6.72744 19.6849C7.16223 19.9074 7.64513 20.0235 8.13524 20.0235C8.62536 20.0235 9.10826 19.9074 9.54305 19.6849C9.97783 19.4624 10.3517 19.1401 10.633 18.7454C10.9143 18.3506 11.0947 17.895 11.159 17.4171C11.2233 16.9392 11.1696 16.4531 11.0024 16H13.4019C13.2347 16.4531 13.1809 16.9392 13.2452 17.4171C13.3095 17.895 13.49 18.3506 13.7713 18.7454C14.0526 19.1401 14.4264 19.4624 14.8612 19.6849C15.296 19.9074 15.7789 20.0235 16.269 20.0235C16.7591 20.0235 17.242 19.9074 17.6768 19.6849C18.1116 19.4624 18.4855 19.1401 18.7668 18.7454C19.0481 18.3506 19.2285 17.895 19.2928 17.4171C19.3571 16.9392 19.3034 16.4531 19.1362 16H19.3192C19.5888 16 19.8475 15.8946 20.0381 15.7071C20.2288 15.5196 20.3359 15.2652 20.3359 15C20.3359 14.7348 20.2288 14.4804 20.0381 14.2929C19.8475 14.1054 19.5888 14 19.3192 14ZM18.0178 4L16.6859 9.24C16.6302 9.46188 16.499 9.65831 16.314 9.79659C16.129 9.93487 15.9014 10.0067 15.6692 10H6.89484L5.36976 4H18.0178ZM8.13524 18C7.93416 18 7.73758 17.9414 7.57038 17.8315C7.40318 17.7216 7.27287 17.5654 7.19592 17.3827C7.11896 17.2 7.09883 16.9989 7.13806 16.8049C7.17729 16.6109 7.27412 16.4327 7.41631 16.2929C7.5585 16.153 7.73967 16.0578 7.93689 16.0192C8.13412 15.9806 8.33855 16.0004 8.52433 16.0761C8.71011 16.1518 8.8689 16.28 8.98062 16.4444C9.09234 16.6089 9.15197 16.8022 9.15197 17C9.15197 17.2652 9.04485 17.5196 8.85418 17.7071C8.6635 17.8946 8.4049 18 8.13524 18ZM16.269 18C16.0679 18 15.8714 17.9414 15.7042 17.8315C15.537 17.7216 15.4066 17.5654 15.3297 17.3827C15.2527 17.2 15.2326 16.9989 15.2718 16.8049C15.3111 16.6109 15.4079 16.4327 15.5501 16.2929C15.6923 16.153 15.8734 16.0578 16.0707 16.0192C16.2679 15.9806 16.4723 16.0004 16.6581 16.0761C16.8439 16.1518 17.0027 16.28 17.1144 16.4444C17.2261 16.6089 17.2857 16.8022 17.2857 17C17.2857 17.2652 17.1786 17.5196 16.988 17.7071C16.7973 17.8946 16.5387 18 16.269 18Z" fill="#787878"/>
</svg>
