<svg width="13" height="17" viewBox="0 0 13 17" fill="none" xmlns="http://www.w3.org/2000/svg">
<path d="M12.8333 16.5H11.25V15C11.25 14.4033 10.9997 13.831 10.5543 13.409C10.1089 12.9871 9.50485 12.75 8.87496 12.75H4.12496C3.49507 12.75 2.89098 12.9871 2.44558 13.409C2.00018 13.831 1.74996 14.4033 1.74996 15V16.5H0.166626V15C0.166626 14.0054 0.583663 13.0516 1.32599 12.3483C2.06833 11.6451 3.07514 11.25 4.12496 11.25H8.87496C9.92477 11.25 10.9316 11.6451 11.6739 12.3483C12.4163 13.0516 12.8333 14.0054 12.8333 15V16.5ZM6.49996 9.75C5.87618 9.75 5.25851 9.6336 4.68221 9.40746C4.10592 9.18131 3.58228 8.84984 3.1412 8.43198C2.70012 8.01412 2.35024 7.51804 2.11153 6.97208C1.87282 6.42611 1.74996 5.84095 1.74996 5.25C1.74996 4.65905 1.87282 4.07389 2.11153 3.52792C2.35024 2.98196 2.70012 2.48588 3.1412 2.06802C3.58228 1.65016 4.10592 1.31869 4.68221 1.09254C5.25851 0.866396 5.87618 0.75 6.49996 0.75C7.75974 0.75 8.96792 1.22411 9.85872 2.06802C10.7495 2.91193 11.25 4.05653 11.25 5.25C11.25 6.44347 10.7495 7.58807 9.85872 8.43198C8.96792 9.27589 7.75974 9.75 6.49996 9.75ZM6.49996 8.25C7.33981 8.25 8.14527 7.93393 8.73913 7.37132C9.333 6.80871 9.66663 6.04565 9.66663 5.25C9.66663 4.45435 9.333 3.69129 8.73913 3.12868C8.14527 2.56607 7.33981 2.25 6.49996 2.25C5.66011 2.25 4.85465 2.56607 4.26079 3.12868C3.66692 3.69129 3.33329 4.45435 3.33329 5.25C3.33329 6.04565 3.66692 6.80871 4.26079 7.37132C4.85465 7.93393 5.66011 8.25 6.49996 8.25Z" fill="#787878"/>
</svg>
