<?xml version="1.0" encoding="utf-8"?>
<!-- Generator: Adobe Illustrator 24.1.0, SVG Export Plug-In . SVG Version: 6.00 Build 0)  -->
<svg version="1.1" id="圖層_1" xmlns="http://www.w3.org/2000/svg" xmlns:xlink="http://www.w3.org/1999/xlink" x="0px" y="0px"
	 viewBox="0 0 16 15" style="enable-background:new 0 0 16 15;" xml:space="preserve">
<style type="text/css">
	.st0{fill:#787878;}
</style>
<path class="st0" d="M8,0.4c-4,0-7.2,3.2-7.2,7.2S4,14.7,8,14.7s7.2-3.2,7.2-7.2S12,0.4,8,0.4z M14.2,7.1h-2.3
	c0-0.8-0.1-1.5-0.3-2.3c0.9,0.2,1.7,0.5,2.4,0.8C14,6.1,14.1,6.6,14.2,7.1z M11.1,7.1H8.4V4.5c0.8,0,1.5,0.1,2.2,0.2
	C10.9,5.5,11.1,6.3,11.1,7.1z M8.4,3.7V1.4c0.1,0,0.2,0,0.3,0C9.4,2.1,10,3,10.4,3.9C9.7,3.8,9.1,3.7,8.4,3.7z M7.6,3.7
	c-0.6,0-1.3,0.1-1.9,0.1c0.4-0.9,0.9-1.8,1.6-2.5c0.1,0,0.2,0,0.3,0V3.7z M7.6,4.5v2.6H5c0-0.8,0.2-1.7,0.4-2.5
	C6.1,4.6,6.8,4.5,7.6,4.5z M4.2,7.1H1.8c0-0.5,0.1-1,0.3-1.5C2.8,5.3,3.6,5,4.6,4.8C4.4,5.6,4.2,6.4,4.2,7.1z M1.8,8h2.4
	c0,0.7,0.1,1.4,0.3,2.1C3.6,9.9,2.7,9.6,2,9.2C1.9,8.8,1.9,8.4,1.8,8z M5,8h2.6v2.4c-0.8,0-1.5-0.1-2.2-0.2C5.1,9.5,5,8.8,5,8z
	 M7.6,11.2v2.5c-0.1,0-0.2,0-0.3,0C6.6,13,6,12.1,5.6,11.1C6.2,11.1,6.9,11.2,7.6,11.2z M8.4,11.2c0.7,0,1.4-0.1,2-0.2
	c-0.4,1-1,1.9-1.8,2.7c-0.1,0-0.2,0-0.3,0V11.2z M8.4,10.4V8h2.7c0,0.8-0.1,1.5-0.4,2.2C10,10.4,9.2,10.4,8.4,10.4z M11.9,8h2.3
	c0,0.4-0.1,0.8-0.2,1.2c-0.7,0.4-1.5,0.6-2.4,0.8C11.7,9.4,11.8,8.7,11.9,8z M13.5,4.6C12.8,4.4,12,4.2,11.3,4
	c-0.3-0.8-0.7-1.6-1.3-2.3C11.5,2.2,12.7,3.3,13.5,4.6z M6.1,1.7C5.5,2.4,5.1,3.2,4.8,4C4,4.2,3.2,4.4,2.5,4.6
	C3.3,3.3,4.6,2.2,6.1,1.7z M2.4,10.2c0.7,0.3,1.5,0.5,2.3,0.7c0.3,0.9,0.7,1.8,1.3,2.5C4.5,12.9,3.1,11.8,2.4,10.2z M10,13.4
	c0.6-0.8,1-1.6,1.4-2.5c0.8-0.2,1.6-0.4,2.3-0.7C12.9,11.7,11.6,12.9,10,13.4z"/>
</svg>
